<svg xmlns:mydata="http://www.w3.org/2000/svg" mydata:contrastcolor="11111f" mydata:template="Contrast" mydata:presentation="2.5" mydata:layouttype="undefined" mydata:specialfontid="undefined" mydata:id1="804" mydata:id2="123" mydata:companyname="Landscape" mydata:companytagline="" version="1.1" xmlns="http://www.w3.org/2000/svg" xmlns:xlink="http://www.w3.org/1999/xlink" viewBox="0 0 550 470"><g fill="#c1c6c8" fill-rule="none" stroke="none" stroke-width="1" stroke-linecap="butt" stroke-linejoin="miter" stroke-miterlimit="10" stroke-dasharray="" stroke-dashoffset="0" font-family="none" font-weight="none" font-size="none" text-anchor="none" style="mix-blend-mode: normal"><g data-paper-data="{&quot;isGlobalGroup&quot;:true,&quot;bounds&quot;:{&quot;x&quot;:133.39399807007788,&quot;y&quot;:106,&quot;width&quot;:283.2120038598442,&quot;height&quot;:258}}"><g data-paper-data="{&quot;isIcon&quot;:&quot;true&quot;,&quot;iconType&quot;:&quot;icon&quot;,&quot;rawIconId&quot;:&quot;899852&quot;,&quot;selectedEffects&quot;:{&quot;container&quot;:&quot;circle_simple_filled&quot;,&quot;transformation&quot;:&quot;&quot;,&quot;pattern&quot;:&quot;&quot;},&quot;isDetailed&quot;:false,&quot;fillRule&quot;:&quot;nonzero&quot;,&quot;blockLetter&quot;:&quot;O&quot;,&quot;blockLetterId&quot;:0,&quot;relativeBoundsIconToContainer&quot;:{&quot;top&quot;:-0.0614634825954262,&quot;left&quot;:0.00000124273201500085},&quot;widthRatioIconToContainer&quot;:0.7693576107248612,&quot;heightRatioIconToContainer&quot;:0.6767104132049572,&quot;bounds&quot;:{&quot;x&quot;:191.4637692273282,&quot;y&quot;:151.464044017561,&quot;width&quot;:167.07246154534363,&quot;height&quot;:128.9942294051111},&quot;iconStyle&quot;:&quot;standalone&quot;,&quot;suitableAsStandaloneIcon&quot;:false}" fill-rule="evenodd"><path d="M275,151.46404c-46.13574,0 -83.53623,37.40049 -83.53623,83.53623c0,16.76451 4.93838,32.37579 13.43977,45.458h12.57154c-3.95269,-1.61796 -6.74412,-5.5068 -6.74412,-10.03644v-70.59823c0,-5.97834 4.86247,-10.83927 10.83927,-10.83927h22.04444l9.8077,-19.73686c0.31865,-0.64015 0.97298,-1.04585 1.68886,-1.04585h39.77655c0.7172,0 1.37021,0.4057 1.68886,1.04585l9.8088,19.73686h22.04477c5.97394,0 10.83773,4.86093 10.83883,10.83927v70.59823c0,4.52964 -2.79187,8.41847 -6.74445,10.03644h12.5722c8.50091,-13.08221 13.43944,-28.69349 13.43944,-45.458c0,-46.13574 -37.40005,-83.53623 -83.53623,-83.53623zM214.50317,270.42183c0,3.89543 3.16921,7.06541 7.06706,7.06541h106.85999c3.89543,0 7.06541,-3.16888 7.06541,-7.06541v-70.59823c0,-3.89653 -3.16888,-7.06717 -7.06541,-7.06717h-23.21318c-0.71445,0 -1.37065,-0.40581 -1.68941,-1.04585l-9.80869,-19.73543h-37.43885l-9.8077,19.73543c-0.31865,0.64004 -0.97309,1.04585 -1.68886,1.04585h-23.21329c-3.89642,0 -7.06706,3.16921 -7.06706,7.06717zM219.87422,206.65214c0,-2.03762 0.66873,-3.94797 1.93178,-5.52537c1.54179,-1.9276 3.76507,-3.09348 6.25983,-3.28638c0.623,-0.05001 1.16742,0.41713 1.216,1.04014c0.04858,0.623 -0.41724,1.16742 -1.04167,1.216c-1.86319,0.14432 -3.52072,1.01167 -4.6666,2.44475c-0.93879,1.17171 -1.43462,2.59193 -1.43462,4.11086c0,2.12468 0.97023,4.12075 2.66195,5.47536c0.48726,0.38866 0.56585,1.10169 0.17576,1.58884c-0.22434,0.27864 -0.55299,0.42581 -0.88438,0.42581c-0.24863,0 -0.49869,-0.08288 -0.70731,-0.24863c-2.23042,-1.78603 -3.51072,-4.42511 -3.51072,-7.24138zM249.34152,209.4627c6.85283,-6.85283 15.96608,-10.6279 25.65936,-10.6279c9.69196,0 18.80379,3.77507 25.65793,10.6279c6.85437,6.85272 10.62779,15.96597 10.62779,25.65793c0,9.69196 -3.77342,18.80664 -10.62779,25.65826c-6.85415,6.85217 -15.96597,10.62889 -25.65793,10.62889c-9.69328,0 -18.80653,-3.77452 -25.65936,-10.62889c-6.85283,-6.85162 -10.62779,-15.9663 -10.62779,-25.65826c0,-9.69196 3.77353,-18.80521 10.62779,-25.65793zM240.97701,235.12063c0,18.76235 15.26306,34.02508 34.02387,34.02508c18.75949,0 34.02255,-15.26273 34.02255,-34.02508c0,-18.75949 -15.26306,-34.02255 -34.02255,-34.02255c-18.76081,0 -34.02387,15.26306 -34.02387,34.02255zM235.74028,208.35958c0.07716,-0.40724 0.11574,-0.82448 0.11574,-1.24315c0,-0.79151 -0.13575,-1.57455 -0.40581,-2.32758c-0.21005,-0.58871 0.09574,-1.23733 0.68445,-1.44738c0.5886,-0.21148 1.23733,0.09574 1.44452,0.68588c0.35866,0.99727 0.5387,2.03751 0.5387,3.08908c0,0.5587 -0.05144,1.11741 -0.15432,1.66325c-0.10145,0.54299 -0.57728,0.92165 -1.11026,0.92165c-0.07002,0 -0.14003,-0.00572 -0.21148,-0.02c-0.61289,-0.11574 -1.01727,-0.70731 -0.90153,-1.32174zM300.20706,235.12063c0,13.90131 -11.30762,25.20981 -25.20618,25.20981c-13.89988,0 -25.20783,-11.3085 -25.20783,-25.20981c0,-13.89845 11.30795,-25.2064 25.20783,-25.2064c13.89856,0 25.20618,11.30795 25.20618,25.2064zM269.44693,222.29804c3.4307,-1.48596 7.23006,-1.54883 10.69791,-0.17718c0.77436,0.30579 1.65171,-0.07419 1.95607,-0.84866c0.30722,-0.77447 -0.07287,-1.65325 -0.84734,-1.95607c-4.21506,-1.66897 -8.83604,-1.59323 -13.00538,0.21423c-4.1723,1.80614 -7.38867,5.12396 -9.0561,9.33902c-1.19171,3.01346 -1.4975,6.27841 -0.88449,9.4519c0.14003,0.7216 0.77161,1.22172 1.48035,1.22172c0.09574,0 0.19136,-0.00857 0.28853,-0.02572c0.81734,-0.15861 1.35175,-0.95165 1.19457,-1.76899c-0.5044,-2.60765 -0.25292,-5.29246 0.72731,-7.77008c1.37164,-3.46499 4.01787,-6.1941 7.44857,-7.68017z" data-paper-data="{&quot;isPathIcon&quot;:true}"/></g><g><path d="M166.88485,327.46092h18.03858v-2.71204h-15.32654v-30.65358h-2.71204z" data-paper-data="{&quot;glyphName&quot;:&quot;L&quot;,&quot;glyphIndex&quot;:0,&quot;firstGlyphOfWord&quot;:true,&quot;word&quot;:1}" fill-rule="nonzero"/><path d="M200.67809,294.0953c-4.97327,0 -9.01932,4.04605 -9.01932,9.01932v24.3463h2.71204v-1.35605c0,-3.47783 2.82939,-6.30722 6.30722,-6.30722c3.47783,0 6.30722,2.82939 6.30722,6.30722v1.35605h2.71204v-24.3463c0.00006,-4.97327 -4.04599,-9.01932 -9.01921,-9.01932zM200.67809,317.08561c-2.45286,0 -4.67966,0.98467 -6.30722,2.57887v-16.54986c0,-3.47783 2.82939,-6.30728 6.30722,-6.30728c3.47783,0 6.30722,2.82945 6.30722,6.30728v16.54986c-1.62756,-1.59419 -3.85442,-2.57887 -6.30722,-2.57887z" data-paper-data="{&quot;glyphName&quot;:&quot;A&quot;,&quot;glyphIndex&quot;:1,&quot;word&quot;:1}" fill-rule="nonzero"/><path d="M231.75924,327.46092h2.71204v-33.36562h-2.71204v7.13951c-0.57993,-0.86305 -1.2478,-1.67624 -1.99949,-2.42799c-3.03828,-3.03828 -7.07795,-4.71158 -11.37475,-4.71158h-1.9523v33.36562h2.71204v-30.63215c7.02283,0.3948 12.6145,6.23306 12.6145,13.35286z" data-paper-data="{&quot;glyphName&quot;:&quot;N&quot;,&quot;glyphIndex&quot;:2,&quot;word&quot;:1}" fill-rule="nonzero"/><path d="M259.24526,318.44166v-15.32709c0,-4.97321 -4.04605,-9.01926 -9.01932,-9.01926h-9.01932v33.36562h9.01932c4.97327,0 9.01932,-4.04605 9.01932,-9.01926zM243.91872,296.80734h6.30728c3.47783,0 6.30722,2.82939 6.30722,6.30722v15.32709c0,3.47783 -2.82939,6.30722 -6.30722,6.30722h-6.30728z" data-paper-data="{&quot;glyphName&quot;:&quot;D&quot;,&quot;glyphIndex&quot;:3,&quot;word&quot;:1}" fill-rule="nonzero"/><path d="M284.01912,318.44166c0,-0.07039 -0.00078,-0.14056 -0.00244,-0.21028c-0.073,-3.18045 -2.04567,-6.03316 -5.02561,-7.26764l-6.94439,-2.87675c-1.99421,-0.82613 -3.31029,-2.72697 -3.35282,-4.84287c-0.00089,-0.04313 -0.00128,-0.08621 -0.00128,-0.12951c-0.00006,-3.45607 2.81113,-6.28541 6.26647,-6.30717c0.0136,-0.00006 0.02726,-0.00011 0.04086,-0.00011c1.67768,0 3.25506,0.6501 4.44563,1.83328c1.20039,1.1929 1.86154,2.78176 1.86154,4.47399v1.35605h2.71204v-1.35605c0,-2.41988 -0.94537,-4.69193 -2.66191,-6.39776c-1.70267,-1.69201 -3.95795,-2.62156 -6.35679,-2.62156c-0.01932,0 -0.03908,0.00006 -0.0584,0.00022c-2.40639,0.0151 -4.66035,0.95819 -6.34669,2.65553c-1.68618,1.69722 -2.61484,3.95717 -2.61478,6.36357c0,0.06162 0.00056,0.12318 0.00178,0.1843c0.06423,3.19244 2.03718,6.05536 5.02639,7.29367l6.94433,2.87675c1.98805,0.82358 3.30396,2.7172 3.35232,4.8245c0.00111,0.04913 0.00172,0.09842 0.00172,0.14783c0,3.47777 -2.82945,6.30722 -6.30728,6.30722c-3.47783,0 -6.30722,-2.82945 -6.30722,-6.30722v-1.35605h-2.71204v1.35605c0,4.97321 4.04605,9.01926 9.01926,9.01926c4.97327,0 9.01932,-4.04605 9.01932,-9.01926z" data-paper-data="{&quot;glyphName&quot;:&quot;S&quot;,&quot;glyphIndex&quot;:4,&quot;word&quot;:1}" fill-rule="nonzero"/><path d="M308.7931,318.44166v-1.35605h-2.71204v1.35605c0,3.47783 -2.82945,6.30722 -6.30728,6.30722c-3.47783,0 -6.30722,-2.82939 -6.30722,-6.30722v-15.32704c0,-3.47783 2.82945,-6.30728 6.30722,-6.30728c3.47783,0 6.30728,2.82945 6.30728,6.30728v1.35605h2.71204v-1.35605c0,-4.97327 -4.04605,-9.01932 -9.01932,-9.01932c-4.97327,0 -9.01932,4.04605 -9.01932,9.01932v15.32704c0,4.97321 4.04605,9.01926 9.01932,9.01926c4.97327,0 9.01932,-4.04605 9.01932,-9.01926z" data-paper-data="{&quot;glyphName&quot;:&quot;C&quot;,&quot;glyphIndex&quot;:5,&quot;word&quot;:1}" fill-rule="nonzero"/><path d="M324.54771,294.0953c-4.97327,0 -9.01932,4.04605 -9.01932,9.01932v24.3463h2.71204v-1.35605c0,-3.47783 2.82939,-6.30722 6.30722,-6.30722c3.47783,0 6.30722,2.82939 6.30722,6.30722v1.35605h2.71204v-24.3463c0.00006,-4.97327 -4.04599,-9.01932 -9.01921,-9.01932zM324.54771,317.08561c-2.45286,0 -4.67966,0.98467 -6.30722,2.57887v-16.54986c0,-3.47783 2.82939,-6.30728 6.30722,-6.30728c3.47783,0 6.30722,2.82945 6.30722,6.30728v16.54986c-1.62756,-1.59419 -3.85442,-2.57887 -6.30722,-2.57887z" data-paper-data="{&quot;glyphName&quot;:&quot;A&quot;,&quot;glyphIndex&quot;:6,&quot;word&quot;:1}" fill-rule="nonzero"/><path d="M343.01436,319.79765h6.30722c4.97327,0 9.01932,-4.04605 9.01932,-9.01932v-7.66377c0,-4.97321 -4.04605,-9.01926 -9.01932,-9.01926h-9.01926v33.36562h2.71204zM343.01436,296.80734h6.30722c3.47783,0 6.30728,2.82939 6.30728,6.30722v7.66377c0,3.47783 -2.82945,6.30728 -6.30728,6.30728h-6.30722z" data-paper-data="{&quot;glyphName&quot;:&quot;P&quot;,&quot;glyphIndex&quot;:7,&quot;word&quot;:1}" fill-rule="nonzero"/><path d="M383.11482,324.74888h-15.32654v-4.95123h7.66327v-2.71204h-7.66327v-20.27827h15.32654v-2.71204h-18.03858v33.36562h18.03858z" data-paper-data="{&quot;glyphName&quot;:&quot;E&quot;,&quot;glyphIndex&quot;:8,&quot;lastGlyphOfWord&quot;:true,&quot;word&quot;:1}" fill-rule="nonzero"/><path d="M133.68253,311.4744l27.36416,27.36471c0.09233,0.09233 0.19884,0.16341 0.31953,0.21324c0.12069,0.04983 0.24636,0.07474 0.37701,0.07474h226.51322c0.13043,0 0.2561,-0.02491 0.37701,-0.07474c0.12091,-0.04983 0.22753,-0.12091 0.31986,-0.21324l27.36361,-27.36471c0.04616,-0.04543 0.0872,-0.09526 0.12311,-0.14949c0.03591,-0.05349 0.06632,-0.11028 0.09123,-0.17037c0.02418,-0.05935 0.04287,-0.12091 0.05606,-0.18466c0.01246,-0.06302 0.01869,-0.12714 0.01869,-0.19235c0,-0.06448 -0.00623,-0.12824 -0.01869,-0.19125c-0.01319,-0.06375 -0.03188,-0.1253 -0.05606,-0.18466c-0.02491,-0.06009 -0.05532,-0.11688 -0.09123,-0.17037c-0.03591,-0.05423 -0.07694,-0.10405 -0.12311,-0.14949l-27.36361,-27.36471c-0.09233,-0.09233 -0.19895,-0.16341 -0.31986,-0.21324c-0.12091,-0.04983 -0.24658,-0.07474 -0.37701,-0.07474h-226.51322c-0.13065,0 -0.25632,0.02491 -0.37701,0.07474c-0.12069,0.04983 -0.2272,0.12091 -0.31953,0.21324l-27.36416,27.36471c-0.0458,0.04543 -0.08665,0.09526 -0.12256,0.14949c-0.03591,0.05349 -0.06624,0.11028 -0.09101,0.17037c-0.02477,0.05935 -0.04345,0.12091 -0.05606,0.18466c-0.0126,0.06302 -0.01891,0.12677 -0.01891,0.19125c0,0.06522 0.0063,0.12933 0.01891,0.19235c0.0126,0.06375 0.03129,0.1253 0.05606,0.18466c0.02477,0.06009 0.0551,0.11688 0.09101,0.17037c0.03591,0.05423 0.07676,0.10405 0.12256,0.14949zM162.15124,337.15739h225.69742l26.37876,-26.37986l-26.37876,-26.37876h-225.69742l-26.37898,26.37876z" fill-rule="evenodd"/></g><g data-paper-data="{&quot;isContainerElementsWrapper&quot;:true}" fill-rule="evenodd"><path d="M156.13959,184.78577c6.52806,-15.43405 15.74254,-29.10154 27.64342,-41.00247c11.90093,-11.90096 25.56842,-21.11543 41.00247,-27.64342c15.98231,-6.75991 32.72048,-10.13987 50.21451,-10.13987c17.49425,0 34.23227,3.37992 50.21407,10.13987c15.43442,6.52821 29.10212,15.74269 41.0031,27.64344c11.90025,11.90078 21.11452,25.56826 27.6428,41.00246c6.75984,15.98231 10.13976,32.72048 10.13976,50.21451c0,17.39774 -3.34255,34.04761 -10.02874,49.94917l-1.50585,-1.50585c6.37623,-15.43332 9.5649,-31.58142 9.5649,-48.44332c0,-17.2277 -3.32826,-33.71006 -9.98368,-49.44707c-6.42899,-15.19777 -15.50257,-28.65665 -27.22292,-40.37675c-11.71925,-11.71958 -25.17811,-20.7936 -40.37658,-27.22208c-15.73705,-6.65615 -32.21934,-9.98423 -49.44685,-9.98423c-17.22774,0 -33.71009,3.32808 -49.44707,9.98423c-15.1981,6.42833 -28.65701,15.50236 -40.37674,27.22209c-11.71966,11.71973 -20.79369,25.17864 -27.22209,40.37674c-6.65615,15.73698 -9.98423,32.21934 -9.98423,49.44707c0,16.86186 3.18819,33.00963 9.56457,48.44332l-1.5064,1.50585c-6.68554,-15.90193 -10.0283,-32.55165 -10.0283,-49.94917c0,-17.49414 3.37992,-34.23238 10.13987,-50.21451zM201.56187,341.09788c7.2371,5.02097 14.9783,9.27509 23.22362,12.76236c15.98235,6.75984 32.72048,10.13976 50.21451,10.13976c17.49425,0 34.23227,-3.37992 50.21407,-10.13976c8.24591,-3.48727 15.9873,-7.74139 23.22417,-12.76236h-3.51622c-6.43229,4.24606 -13.25808,7.89637 -20.47517,10.94874c-15.73669,6.65542 -32.21861,9.98368 -49.44685,9.98368c-17.2277,0 -33.71006,-3.32826 -49.44707,-9.98368c-7.21724,-3.05347 -14.04222,-6.70305 -20.47495,-10.94874z" data-paper-data="{&quot;isAdditionalOutlinePath&quot;:true}"/><path d="M151.86111,235.00027c0,-68.00772 55.13116,-123.13889 123.13889,-123.13889c68.00729,0 123.139,55.13116 123.139,123.13889c0,16.14129 -3.10623,31.55691 -8.75262,45.68333c-0.17916,-0.07364 -0.36382,-0.1297 -0.55288,-0.16817c-0.19015,-0.03847 -0.38251,-0.05716 -0.57706,-0.05716h-37.94304c8.02497,-13.26577 12.64255,-28.82253 12.64255,-45.458c0,-48.57698 -39.37854,-87.95634 -87.95596,-87.95634c-48.57698,0 -87.95634,39.37936 -87.95634,87.95634c0,16.63547 4.61816,32.19223 12.64238,45.458h-37.94282c-0.194,0 -0.38625,0.01869 -0.57651,0.05716c-0.19004,0.03847 -0.37448,0.09343 -0.55343,0.16817c-5.6465,-14.12642 -8.75218,-29.54204 -8.75218,-45.68333zM212.45983,341.09788c18.32972,10.82783 39.70939,17.04139 62.54017,17.04139c22.83067,0 44.21045,-6.21356 62.54006,-17.04139z" data-paper-data="{&quot;isBaseLogoContainer&quot;:true}"/></g></g></g></svg>